<svg width="32" height="33" viewBox="0 0 32 33" fill="none" xmlns="http://www.w3.org/2000/svg">
<path d="M12 25.6389C6.26667 27.5056 6.26667 22.3056 4 21.6389M20 28.3056V23.6389C20 22.3056 20.1333 21.7723 19.3333 20.9723C23.0667 20.5723 26.6667 19.1056 26.6667 12.9723C26.665 11.3789 26.0434 9.84868 24.9333 8.7056C25.454 7.32155 25.406 5.78777 24.8 4.43893C24.8 4.43893 23.3333 4.03893 20.1333 6.17227C17.423 5.46638 14.577 5.46638 11.8667 6.17227C8.66667 4.03893 7.2 4.43893 7.2 4.43893C6.59397 5.78777 6.54604 7.32155 7.06667 8.7056C5.9566 9.84868 5.33496 11.3789 5.33333 12.9723C5.33333 19.1056 8.93333 20.5723 12.6667 20.9723C11.8667 21.7723 11.8667 22.5723 12 23.6389V28.3056" stroke="#FFD79D" stroke-width="2" stroke-linecap="round" stroke-linejoin="round"/>
</svg>
