<svg width="32" height="33" viewBox="0 0 32 33" fill="none" xmlns="http://www.w3.org/2000/svg">
<path d="M29.3333 5.65229C28 6.30562 26.6933 6.57095 25.3333 6.97229C23.8386 5.28562 21.6226 5.19229 19.4933 5.98962C17.364 6.78695 15.9693 8.73629 16 10.9723V12.3056C11.6733 12.4163 7.81996 10.4456 5.33329 6.97229C5.33329 6.97229 -0.242707 16.883 10.6666 21.639C8.17063 23.3016 5.68129 24.423 2.66663 24.3056C7.07729 26.7096 11.884 27.5363 16.0453 26.3283C20.8186 24.9416 24.7413 21.3643 26.2466 16.0056C26.6957 14.3758 26.9187 12.6921 26.9093 11.0016C26.9093 10.6696 28.9226 7.30562 29.3333 5.65095V5.65229Z" stroke="#FFD79D" stroke-width="2" stroke-linecap="round" stroke-linejoin="round"/>
</svg>
